HIERARCHY
ROOT root_translation_joint
{
	OFFSET	0	0	0
	CHANNELS 6 Xposition Yposition Zposition Zrotation Xrotation Yrotation
	JOINT head_joint
	{
		OFFSET	0	0.4982	0
		CHANNELS 3  Zrotation Xrotation Yrotation
		JOINT middleleftshoulder_joint
		{
			OFFSET	0	0	0
			CHANNELS 3  Zrotation Xrotation Yrotation
			JOINT MiddleLeftUpperLimb_x_joint
			{
				OFFSET	-0.1891	0	-0.0795
				CHANNELS 3  Zrotation Xrotation Yrotation
				JOINT MiddleLeftLimb_joint
				{
					OFFSET	-0.4456	0.0015	0.1781
					CHANNELS 3  Zrotation Xrotation Yrotation
					JOINT MiddleLeftLowerLimb_joint
					{
						OFFSET	-0.3928	-0.0167	-0.3044
						CHANNELS 3  Zrotation Xrotation Yrotation
						JOINT MiddleLeftEffector_x_joint
						{
							OFFSET	-0.4343	-0.054	-0.1597
							CHANNELS 3  Zrotation Xrotation Yrotation
							JOINT Middleleft_foot_endeffector_joint
							{
								OFFSET	-0.024924	-0.097428	0.001788
								CHANNELS 3  Zrotation Xrotation Yrotation
								End Site
								{
									OFFSET	-0.0001239	-0.000484324	8.88832e-06
								}
							}
							JOINT Middleleft_foot_cp_1_joint
							{
								OFFSET	-0.05	0.02	-0.005
								CHANNELS 3  Zrotation Xrotation Yrotation
								End Site
								{
									OFFSET	-0.00046225	0.0001849	-4.6225e-05
								}
							}
							JOINT Middleleft_foot_cp_2_joint
							{
								OFFSET	-0.12	0.02	-0.005
								CHANNELS 3  Zrotation Xrotation Yrotation
								End Site
								{
									OFFSET	-0.000492781	8.21302e-05	-2.05325e-05
								}
							}
							JOINT Middleleft_foot_cp_3_joint
							{
								OFFSET	-0.12	-0.08	-0.005
								CHANNELS 3  Zrotation Xrotation Yrotation
								End Site
								{
									OFFSET	-0.000415775	-0.000277184	-1.7324e-05
								}
							}
							JOINT Middleleft_foot_cp_4_joint
							{
								OFFSET	-0.05	-0.08	-0.005
								CHANNELS 3  Zrotation Xrotation Yrotation
								End Site
								{
									OFFSET	-0.000264628	-0.000423405	-2.64628e-05
								}
							}
						}
					}
				}
			}
		}
		JOINT frontleftshoulder_joint
		{
			OFFSET	0	0	0
			CHANNELS 3  Zrotation Xrotation Yrotation
			JOINT FrontLeftUpperLimb_x_joint
			{
				OFFSET	-0.1891	0	-0.0795
				CHANNELS 3  Zrotation Xrotation Yrotation
				JOINT FrontLeftLimb_joint
				{
					OFFSET	-0.4456	0.0015	0.1781
					CHANNELS 3  Zrotation Xrotation Yrotation
					JOINT FrontLeftLowerLimb_joint
					{
						OFFSET	-0.3928	-0.0167	-0.3044
						CHANNELS 3  Zrotation Xrotation Yrotation
						JOINT FrontLeftEffector_x_joint
						{
							OFFSET	-0.4343	-0.054	-0.1597
							CHANNELS 3  Zrotation Xrotation Yrotation
							JOINT Frontleft_foot_endeffector_joint
							{
								OFFSET	-0.1086	-0.0059	-0.0138
								CHANNELS 3  Zrotation Xrotation Yrotation
								End Site
								{
									OFFSET	-0.000495293	-2.69082e-05	-6.29377e-05
								}
							}
							JOINT Frontleft_foot_cp_1_joint
							{
								OFFSET	-0.05	0.02	-0.005
								CHANNELS 3  Zrotation Xrotation Yrotation
								End Site
								{
									OFFSET	-0.00046225	0.0001849	-4.6225e-05
								}
							}
							JOINT Frontleft_foot_cp_2_joint
							{
								OFFSET	-0.12	0.02	-0.005
								CHANNELS 3  Zrotation Xrotation Yrotation
								End Site
								{
									OFFSET	-0.000492781	8.21302e-05	-2.05325e-05
								}
							}
							JOINT Frontleft_foot_cp_3_joint
							{
								OFFSET	-0.12	-0.08	-0.005
								CHANNELS 3  Zrotation Xrotation Yrotation
								End Site
								{
									OFFSET	-0.000415775	-0.000277184	-1.7324e-05
								}
							}
							JOINT Frontleft_foot_cp_4_joint
							{
								OFFSET	-0.05	-0.08	-0.005
								CHANNELS 3  Zrotation Xrotation Yrotation
								End Site
								{
									OFFSET	-0.000264628	-0.000423405	-2.64628e-05
								}
							}
						}
					}
				}
			}
		}
		JOINT BackLeftshoulder_joint
		{
			OFFSET	0	0	0
			CHANNELS 3  Zrotation Xrotation Yrotation
			JOINT BackLeftUpperLimb_x_joint
			{
				OFFSET	-0.1891	0	-0.0795
				CHANNELS 3  Zrotation Xrotation Yrotation
				JOINT BackLeftLimb_joint
				{
					OFFSET	-0.4456	0.0015	0.1781
					CHANNELS 3  Zrotation Xrotation Yrotation
					JOINT BackLeftLowerLimb_joint
					{
						OFFSET	-0.3928	-0.0167	-0.3044
						CHANNELS 3  Zrotation Xrotation Yrotation
						JOINT BackLeftEffector_x_joint
						{
							OFFSET	-0.4343	-0.054	-0.1597
							CHANNELS 3  Zrotation Xrotation Yrotation
							JOINT BackLeft_foot_endeffector_joint
							{
								OFFSET	-0.024924	-0.097428	0.001788
								CHANNELS 3  Zrotation Xrotation Yrotation
								End Site
								{
									OFFSET	-0.0001239	-0.000484324	8.88832e-06
								}
							}
							JOINT BackLeft_foot_cp_1_joint
							{
								OFFSET	-0.05	0.02	-0.005
								CHANNELS 3  Zrotation Xrotation Yrotation
								End Site
								{
									OFFSET	-0.00046225	0.0001849	-4.6225e-05
								}
							}
							JOINT BackLeft_foot_cp_2_joint
							{
								OFFSET	-0.12	0.02	-0.005
								CHANNELS 3  Zrotation Xrotation Yrotation
								End Site
								{
									OFFSET	-0.000492781	8.21302e-05	-2.05325e-05
								}
							}
							JOINT BackLeft_foot_cp_3_joint
							{
								OFFSET	-0.12	-0.08	-0.005
								CHANNELS 3  Zrotation Xrotation Yrotation
								End Site
								{
									OFFSET	-0.000415775	-0.000277184	-1.7324e-05
								}
							}
							JOINT BackLeft_foot_cp_4_joint
							{
								OFFSET	-0.05	-0.08	-0.005
								CHANNELS 3  Zrotation Xrotation Yrotation
								End Site
								{
									OFFSET	-0.000264628	-0.000423405	-2.64628e-05
								}
							}
						}
					}
				}
			}
		}
		JOINT BackRightshoulder_joint
		{
			OFFSET	0	0	0
			CHANNELS 3  Zrotation Xrotation Yrotation
			JOINT BackRightUpperLimb_x_joint
			{
				OFFSET	-0.1891	0	-0.0795
				CHANNELS 3  Zrotation Xrotation Yrotation
				JOINT BackRightLimb_joint
				{
					OFFSET	-0.4456	0.0015	0.1781
					CHANNELS 3  Zrotation Xrotation Yrotation
					JOINT BackRightLowerLimb_joint
					{
						OFFSET	-0.3928	-0.0167	-0.3044
						CHANNELS 3  Zrotation Xrotation Yrotation
						JOINT BackRightEffector_x_joint
						{
							OFFSET	-0.4343	-0.054	-0.1597
							CHANNELS 3  Zrotation Xrotation Yrotation
							JOINT BackRight_foot_endeffector_joint
							{
								OFFSET	-0.024924	-0.097428	0.001788
								CHANNELS 3  Zrotation Xrotation Yrotation
								End Site
								{
									OFFSET	-0.0001239	-0.000484324	8.88832e-06
								}
							}
							JOINT BackRight_foot_cp_1_joint
							{
								OFFSET	-0.05	0.02	-0.005
								CHANNELS 3  Zrotation Xrotation Yrotation
								End Site
								{
									OFFSET	-0.00046225	0.0001849	-4.6225e-05
								}
							}
							JOINT BackRight_foot_cp_2_joint
							{
								OFFSET	-0.12	0.02	-0.005
								CHANNELS 3  Zrotation Xrotation Yrotation
								End Site
								{
									OFFSET	-0.000492781	8.21302e-05	-2.05325e-05
								}
							}
							JOINT BackRight_foot_cp_3_joint
							{
								OFFSET	-0.12	-0.08	-0.005
								CHANNELS 3  Zrotation Xrotation Yrotation
								End Site
								{
									OFFSET	-0.000415775	-0.000277184	-1.7324e-05
								}
							}
							JOINT BackRight_foot_cp_4_joint
							{
								OFFSET	-0.05	-0.08	-0.005
								CHANNELS 3  Zrotation Xrotation Yrotation
								End Site
								{
									OFFSET	-0.000264628	-0.000423405	-2.64628e-05
								}
							}
						}
					}
				}
			}
		}
		JOINT MiddleRightshoulder_joint
		{
			OFFSET	0	0	0
			CHANNELS 3  Zrotation Xrotation Yrotation
			JOINT MiddleRightUpperLimb_x_joint
			{
				OFFSET	-0.1891	0	-0.0795
				CHANNELS 3  Zrotation Xrotation Yrotation
				JOINT MiddleRightLimb_joint
				{
					OFFSET	-0.4456	0.0015	0.1781
					CHANNELS 3  Zrotation Xrotation Yrotation
					JOINT MiddleRightLowerLimb_joint
					{
						OFFSET	-0.3928	-0.0167	-0.3044
						CHANNELS 3  Zrotation Xrotation Yrotation
						JOINT MiddleRightEffector_x_joint
						{
							OFFSET	-0.4343	-0.054	-0.1597
							CHANNELS 3  Zrotation Xrotation Yrotation
							JOINT MiddleRight_foot_endeffector_joint
							{
								OFFSET	-0.024924	-0.097428	0.001788
								CHANNELS 3  Zrotation Xrotation Yrotation
								End Site
								{
									OFFSET	-0.0001239	-0.000484324	8.88832e-06
								}
							}
							JOINT MiddleRight_foot_cp_1_joint
							{
								OFFSET	-0.05	0.02	-0.005
								CHANNELS 3  Zrotation Xrotation Yrotation
								End Site
								{
									OFFSET	-0.00046225	0.0001849	-4.6225e-05
								}
							}
							JOINT MiddleRight_foot_cp_2_joint
							{
								OFFSET	-0.12	0.02	-0.005
								CHANNELS 3  Zrotation Xrotation Yrotation
								End Site
								{
									OFFSET	-0.000492781	8.21302e-05	-2.05325e-05
								}
							}
							JOINT MiddleRight_foot_cp_3_joint
							{
								OFFSET	-0.12	-0.08	-0.005
								CHANNELS 3  Zrotation Xrotation Yrotation
								End Site
								{
									OFFSET	-0.000415775	-0.000277184	-1.7324e-05
								}
							}
							JOINT MiddleRight_foot_cp_4_joint
							{
								OFFSET	-0.05	-0.08	-0.005
								CHANNELS 3  Zrotation Xrotation Yrotation
								End Site
								{
									OFFSET	-0.000264628	-0.000423405	-2.64628e-05
								}
							}
						}
					}
				}
			}
		}
		JOINT FrontRightshoulder_joint
		{
			OFFSET	0	0	0
			CHANNELS 3  Zrotation Xrotation Yrotation
			JOINT FrontRightUpperLimb_x_joint
			{
				OFFSET	-0.1891	0	-0.0795
				CHANNELS 3  Zrotation Xrotation Yrotation
				JOINT FrontRightLimb_joint
				{
					OFFSET	-0.4456	0.0015	0.1781
					CHANNELS 3  Zrotation Xrotation Yrotation
					JOINT FrontRightLowerLimb_joint
					{
						OFFSET	-0.3928	-0.0167	-0.3044
						CHANNELS 3  Zrotation Xrotation Yrotation
						JOINT FrontRightEffector_x_joint
						{
							OFFSET	-0.4343	-0.054	-0.1597
							CHANNELS 3  Zrotation Xrotation Yrotation
							JOINT FrontRight_foot_endeffector_joint
							{
								OFFSET	-0.024924	-0.097428	0.001788
								CHANNELS 3  Zrotation Xrotation Yrotation
								End Site
								{
									OFFSET	-0.0001239	-0.000484324	8.88832e-06
								}
							}
							JOINT FrontRight_foot_cp_1_joint
							{
								OFFSET	-0.05	0.02	-0.005
								CHANNELS 3  Zrotation Xrotation Yrotation
								End Site
								{
									OFFSET	-0.00046225	0.0001849	-4.6225e-05
								}
							}
							JOINT FrontRight_foot_cp_2_joint
							{
								OFFSET	-0.12	0.02	-0.005
								CHANNELS 3  Zrotation Xrotation Yrotation
								End Site
								{
									OFFSET	-0.000492781	8.21302e-05	-2.05325e-05
								}
							}
							JOINT FrontRight_foot_cp_3_joint
							{
								OFFSET	-0.12	-0.08	-0.005
								CHANNELS 3  Zrotation Xrotation Yrotation
								End Site
								{
									OFFSET	-0.000415775	-0.000277184	-1.7324e-05
								}
							}
							JOINT FrontRight_foot_cp_4_joint
							{
								OFFSET	-0.05	-0.08	-0.005
								CHANNELS 3  Zrotation Xrotation Yrotation
								End Site
								{
									OFFSET	-0.000264628	-0.000423405	-2.64628e-05
								}
							}
						}
					}
				}
			}
		}
	}
}
MOTION
Frames:	4
Frame Time: 1
-0.445423	3.38485	4.85744	-101.134	32.0765	-67.4105	-0	0	-0	-0	0	-0	5.72769	19.6222	-21.9447	-0	0	-14.9472	-0	0	8.69143	-6.88912	-19.9754	11.3705	-0.0572958	0	-0	-0	0	-0	-0	0	-0	-0	0	-0	-0	0	-0	-45	0	-0	-15.4698	-21.3191	-13.6856	-0	0	-14.7264	-0	0	30.2075	-49.6097	-70.9408	34.7604	-0.0572958	0	-0	-0	0	-0	-0	0	-0	-0	0	-0	-0	0	-0	45	0	-0	12.8864	18.3513	-6.36204	-0	0	-50.2664	-0	0	22.6344	-16.6645	-33.2253	10.294	-0.0572958	0	-0	-0	0	-0	-0	0	-0	-0	0	-0	-0	0	-0	135	0	-0	-8.00391	-23.0635	14.7201	-0	0	0.358019	-0	0	-30.4528	-85.475	-60.0542	-79.7999	-0.0572958	0	-0	-0	0	-0	-0	0	-0	-0	0	-0	-0	0	-0	180	0	-0	2.61	0.151515	86.5366	-0	0	-73.4927	-0	0	-39.192	-9.42247	-15.6608	41.3614	-0.0572958	0	-0	-0	0	-0	-0	0	-0	-0	0	-0	-0	0	-0	-135	0	-0	11.264	5.72763	18.4126	-0	0	-3.75291	-0	0	-28.5834	-26.8455	-39.0161	-38.1007	-0.0572958	0	-0	-0	0	-0	-0	0	-0	-0	0	-0	-0	0	-0
-0.438657	3.3809	4.95713	-101.448	34.763	-67.7242	-0	0	-0	-0	0	-0	-23.9247	-20.9186	-27.8376	-0	0	-8.32038	-0	0	3.67759	-60.9567	-71.344	-14.0871	-0.0572958	0	-0	-0	0	-0	-0	0	-0	-0	0	-0	-0	0	-0	-45	0	-0	-9.51015	-26.072	-20.2187	-0	0	-7.01444	-0	0	27.6105	-50.7547	-72.9147	36.3251	-0.0572958	0	-0	-0	0	-0	-0	0	-0	-0	0	-0	-0	0	-0	45	0	-0	14.6048	19.9845	-13.2925	-0	0	-35.5158	-0	0	21.2672	-20.7731	-32.9876	2.29659	-0.0572958	0	-0	-0	0	-0	-0	0	-0	-0	0	-0	-0	0	-0	135	0	-0	-20.0006	-23.9681	4.41529	-0	0	-54.3461	-0	0	-2.08219	-65.6923	-56.8456	-63.6914	-0.0572958	0	-0	-0	0	-0	-0	0	-0	-0	0	-0	-0	0	-0	180	0	-0	0.136452	-0.37166	97.6419	-0	0	-81.7857	-0	0	-46.9294	-6.59108	-14.6944	45.4753	-0.0572958	0	-0	-0	0	-0	-0	0	-0	-0	0	-0	-0	0	-0	-135	0	-0	7.04292	4.25921	-0.871079	-0	0	13.9175	-0	0	-11.9639	-26.8455	-39.0161	-38.1007	-0.0572958	0	-0	-0	0	-0	-0	0	-0	-0	0	-0	-0	0	-0
-0.438657	3.3809	4.95713	-101.448	34.763	-67.7242	-0	0	-0	-0	0	-0	33.0381	21.7404	-20.1009	-0	0	-2.7796	-0	0	-22.4743	-11.287	-33.8473	20.8567	-0.0572958	0	-0	-0	0	-0	-0	0	-0	-0	0	-0	-0	0	-0	-45	0	-0	-9.57688	-26.2053	-20.3801	-0	0	-6.80565	-0	0	27.6326	-50.7663	-72.9724	36.8127	-0.0572958	0	-0	-0	0	-0	-0	0	-0	-0	0	-0	-0	0	-0	45	0	-0	14.6272	19.9993	-13.3587	-0	0	-35.4928	-0	0	21.3601	-20.7627	-33.0139	2.53259	-0.0572958	0	-0	-0	0	-0	-0	0	-0	-0	0	-0	-0	0	-0	135	0	-0	-20.0629	-24.019	4.38456	-0	0	-54.3461	-0	0	-2.08413	-65.7989	-56.8624	-63.7931	-0.0572958	0	-0	-0	0	-0	-0	0	-0	-0	0	-0	-0	0	-0	180	0	-0	0.123759	-0.376008	97.7169	-0	0	-81.9387	-0	0	-46.9645	-6.46882	-14.7026	45.6413	-0.0572958	0	-0	-0	0	-0	-0	0	-0	-0	0	-0	-0	0	-0	-135	0	-0	7.04292	4.25921	-0.871079	-0	0	13.9175	-0	0	-11.9639	-26.8455	-39.0161	-38.1007	-0.0572958	0	-0	-0	0	-0	-0	0	-0	-0	0	-0	-0	0	-0
-0.438657	3.3809	4.95713	-101.448	34.763	-67.7242	-0	0	-0	-0	0	-0	32.7764	21.5572	-19.4828	-0	0	-2.2062	-0	0	-24.5294	-12.5796	-33.3705	15.5932	-0.0572958	0	-0	-0	0	-0	-0	0	-0	-0	0	-0	-0	0	-0	-45	0	-0	-8.3584	-23.589	-17.2388	-0	0	-10.7906	-0	0	27.0756	-50.5538	-71.816	27.1643	-0.0572958	0	-0	-0	0	-0	-0	0	-0	-0	0	-0	-0	0	-0	45	0	-0	13.6553	19.2031	-11.7952	-0	0	-35.8588	-0	0	19.3292	-20.9638	-32.8651	-2.89527	-0.0572958	0	-0	-0	0	-0	-0	0	-0	-0	0	-0	-0	0	-0	135	0	-0	-18.1702	-22.387	5.3203	-0	0	-54.3232	-0	0	-2.03486	-61.7004	-56.0815	-60.3931	-0.0572958	0	-0	-0	0	-0	-0	0	-0	-0	0	-0	-0	0	-0	180	0	-0	-0.291278	12.399	1.47333	-0	0	-23.0502	-0	0	12.2883	-15.66	-28.6545	9.76656	-0.0572958	0	-0	-0	0	-0	-0	0	-0	-0	0	-0	-0	0	-0	-135	0	-0	7.04292	4.25921	-0.871079	-0	0	13.9175	-0	0	-11.9639	-26.8455	-39.0161	-38.1007	-0.0572958	0	-0	-0	0	-0	-0	0	-0	-0	0	-0	-0	0	-0
